<?xml version="1.0" standalone="no"?>
<!DOCTYPE svg PUBLIC "-//W3C//DTD SVG 20010904//EN"
 "http://www.w3.org/TR/2001/REC-SVG-20010904/DTD/svg10.dtd">
<svg version="1.0" xmlns="http://www.w3.org/2000/svg"
 width="1280.000000pt" height="934.000000pt" viewBox="0 0 1280.000000 934.000000"
 preserveAspectRatio="xMidYMid meet">
<g transform="translate(0.000000,934.000000) scale(0.100000,-0.100000)"
fill="#000000" stroke="none">
<path d="M4580 9327 c-19 -7 -42 -17 -51 -23 -9 -5 -1024 -1015 -2256 -2244
l-2240 -2235 -18 -58 c-21 -72 -15 -130 21 -197 18 -34 667 -687 2266 -2281
1232 -1229 2259 -2245 2282 -2259 55 -34 161 -35 221 -3 51 27 1247 1225 1271
1273 11 22 18 59 18 100 1 53 -4 74 -27 116 -21 37 -446 468 -1588 1610
l-1560 1559 1552 1550 c989 989 1559 1564 1572 1590 24 47 27 131 8 190 -11
33 -127 154 -625 653 -336 337 -630 625 -653 639 -52 30 -141 40 -193 20z"/>
<path d="M11280 9327 c-19 -7 -43 -18 -53 -23 -10 -6 -1022 -1014 -2248 -2240
-1394 -1393 -2238 -2244 -2252 -2269 -29 -56 -29 -155 0 -210 27 -51 4497
-4520 4556 -4555 57 -34 162 -35 222 -3 50 27 1246 1225 1271 1273 13 24 19
57 19 105 0 58 -4 77 -27 115 -16 26 -679 697 -1588 1605 l-1561 1560 1550
1545 c1105 1101 1556 1557 1571 1587 31 64 35 121 15 184 -16 51 -51 88 -634
672 -367 369 -632 627 -655 639 -49 25 -139 33 -186 15z"/>
</g>
</svg>
